<?xml version="1.0" encoding="UTF-8" standalone="no"?>
<!-- Generator: Adobe Illustrator 12.0.0, SVG Export Plug-In . SVG Version: 6.00 Build 51448)  -->

<svg
   xmlns:dc="http://purl.org/dc/elements/1.1/"
   xmlns:cc="http://creativecommons.org/ns#"
   xmlns:rdf="http://www.w3.org/1999/02/22-rdf-syntax-ns#"
   xmlns:svg="http://www.w3.org/2000/svg"
   xmlns="http://www.w3.org/2000/svg"
   xmlns:sodipodi="http://sodipodi.sourceforge.net/DTD/sodipodi-0.dtd"
   xmlns:inkscape="http://www.inkscape.org/namespaces/inkscape"
   version="1.1"
   id="os-svg"
   width="100%"
   height="180"
   viewBox="0 0 320.00001 249.99999"
   overflow="visible"
   enable-background="new 0 0 499.524 554.546"
   xml:space="preserve"
   inkscape:version="0.48.3.1 r9886"
   sodipodi:docname="os.svg"
   style="overflow:visible">
   <metadata
   id="metadata25">
      <rdf:RDF>
         <cc:Work
   rdf:about="">
            <dc:format>image/svg+xml</dc:format>
            <dc:type
   rdf:resource="http://purl.org/dc/dcmitype/StillImage" />
            <dc:title />
         </cc:Work>
      </rdf:RDF>
   </metadata>
   <defs
   id="defs23"><inkscape:path-effect
     effect="spiro"
     id="path-effect3771"
     is_visible="true" /><inkscape:path-effect
     effect="spiro"
     id="path-effect3767"
     is_visible="true" /></defs>
   <sodipodi:namedview
   pagecolor="#ffffff"
   bordercolor="#666666"
   borderopacity="1"
   objecttolerance="5"
   gridtolerance="10000"
   guidetolerance="10"
   inkscape:pageopacity="0"
   inkscape:pageshadow="2"
   inkscape:window-width="1360"
   inkscape:window-height="722"
   id="namedview21"
   showgrid="true"
   showguides="true"
   inkscape:guide-bbox="true"
   inkscape:zoom="3.7436028"
   inkscape:cx="161.33516"
   inkscape:cy="91.318749"
   inkscape:window-x="0"
   inkscape:window-y="24"
   inkscape:window-maximized="1"
   inkscape:current-layer="os-svg">
      <inkscape:grid
   type="xygrid"
   id="grid2995"
   empspacing="2"
   visible="true"
   enabled="true"
   snapvisiblegridlinesonly="true" />
   </sodipodi:namedview>
   <style
   type="text/css"
   id="style4">
      .st0{fill:#EBEBEB;}
      .st1{fill:#8ACF17;}
      .st2{fill:#FFFFFF;}
      .st3{fill:#63A814;}
   </style>
   <g
   id="apple"
   transform="matrix(0.67700827,0,0,0.73646824,71.33007,74.364977)"
   inkscape:label="#g3041"
   style="display:none">
      <g
   id="g2991" />
      <g
   transform="matrix(0.22729791,0,0,0.18749835,215.15872,9.2797564)"
   id="g2994" />
      <g
   transform="matrix(1.1399456,0,0,1.2056349,-244.50921,-101.03993)"
   id="g3022" />
      <g
   transform="matrix(1.5657655,0,0,1.306932,-43.76468,-103.19013)"
   id="g3049">
         <path
   inkscape:connector-curvature="0"
   id="path2"
   d="m 133.26609,112.29166 c -2.51908,-11.04164 9.51431,-17.519397 9.51431,-17.519397 0,0 -4.69231,-5.90941 -12.56786,-7.42956 -7.87554,-1.52358 -11.81724,0.38003 -15.75109,1.80774 -3.93777,1.42771 -5.90272,1.42771 -5.90272,1.42771 -5.68266,0 -9.836568,-5.24178 -20.663478,-2.85542 -7.45898,1.63999 -15.31094,9.14145 -16.72964,18.094597 -1.4187,8.95656 1.6427,20.38509 7.54543,29.24236 5.90273,8.86413 11.9155,12.19545 16.18338,12.29131 4.26789,0.0924 8.527908,-2.66368 13.664308,-3.33474 5.13639,-0.66421 8.3039,1.62286 13.34205,2.85884 5.02636,1.23598 6.78303,0.089 12.57179,-4.19753 5.79662,-4.28656 11.04698,-16.57787 11.04698,-16.57787 0,0 -9.73439,-2.75613 -12.25346,-13.80804 z"
   class="i_apple" />
         <path
   inkscape:connector-curvature="0"
   id="path3"
   d="m 122.11299,80.193882 c 5.58048,-4.954187 3.68626,-12.623418 3.68626,-12.623418 0,0 -7.83624,1.198318 -13.08661,5.95735 -5.24643,4.762455 -4.37399,12.284459 -4.37399,12.284459 0,0 8.19387,-0.66763 13.77434,-5.618391 z"
   class="i_apple" />
      </g>
   </g>
   
   <path
   style="display:none;overflow:visible"
   inkscape:connector-curvature="0"
   id="windows"
   d="m 112.5071,145.55548 -0.0341,-24.76773 37.4909,-4.1384 v 28.90613 H 112.507 z m 43.70525,-29.64423 49.97543,-5.91126 v 35.55549 h -49.97543 v -29.64423 z m 49.98769,34.72358 -0.0119,35.5555 -49.97544,-5.71555 v -29.83995 h 49.98732 z m -56.23622,29.19329 -37.46047,-4.17412 -0.002,-25.01917 h 37.4624 v 29.19329 z"
   inkscape:label="#path1" />
   <path
   inkscape:connector-curvature="0"
   id="linux"
   d="m 197.12001,169.82294 c -2.7494,-0.93883 -5.01466,-2.41732 -4.85031,-5.2486 0.1599,-2.82761 -2.42961,-4.70159 -2.42961,-4.70159 0,0 2.26526,-6.19115 0.15992,-11.303 -2.10092,-5.11926 -9.05215,-13.32113 -14.38661,-19.50859 -5.32557,-6.19114 -0.80394,-13.32483 -5.64981,-22.46926 -4.85476,-9.144415 -17.46025,-8.608475 -24.25157,-4.70527 -6.79577,3.8958 -4.69486,13.57987 -4.37506,18.16318 0.32424,4.56851 0.14658,7.82487 -0.4797,9.00766 -0.6396,1.18278 -5.01021,5.52214 -7.92395,9.15182 -2.90931,3.62966 -5.01021,11.16623 -7.12002,14.25995 -2.10091,3.09374 -0.64405,5.91764 -0.64405,5.91764 0,0 -1.45686,0.39918 -2.58949,2.4284 -1.13263,2.01074 -3.39343,2.95328 -7.43537,3.61859 -4.04193,0.67271 -4.04193,2.835 -3.07364,5.25601 0.97273,2.41732 0.003,3.77013 -1.12818,6.85647 -1.13262,3.08633 4.52606,4.03626 10.02043,4.56482 5.49878,0.54334 11.64163,3.504 16.82062,4.03996 5.16569,0.53964 6.7869,-2.95697 6.7869,-2.95697 0,0 5.8186,-1.08299 11.95699,-1.20866 6.14729,-0.13676 11.957,1.07559 11.957,1.07559 0,0 1.13263,2.1512 3.23355,3.09004 2.10536,0.94252 6.63142,1.07928 9.54073,-1.4711 2.91374,-2.56147 10.67335,-5.78456 15.03508,-7.80639 4.37505,-2.02552 3.57556,-5.11556 0.82615,-6.0507 z m -37.83422,-59.32785 c 2.77162,0 5.01021,2.28797 5.01021,5.10818 0,2.00334 -1.12374,3.72947 -2.76272,4.56852 -0.41751,-0.15155 -0.85725,-0.30679 -1.32362,-0.47312 0.98605,-0.40658 1.68783,-1.45261 1.68783,-2.67237 0,-1.58936 -1.18148,-2.87934 -2.64279,-2.87934 -1.44355,0 -2.62948,1.29367 -2.62948,2.87934 0,0.58771 0.16878,1.15322 0.4575,1.61525 -0.86169,-0.2846 -1.65675,-0.55073 -2.27859,-0.74663 -0.33757,-0.6875 -0.52856,-1.4637 -0.52856,-2.29165 0,-2.82021 2.23861,-5.10818 5.01022,-5.10818 z m -0.35979,10.77076 c 1.38582,0.3992 2.92708,1.14953 2.76718,1.89247 -0.16435,0.74663 -0.89277,0.74663 -2.76718,1.70025 -1.87881,0.94624 -5.9474,3.04569 -7.24881,3.18244 -1.3103,0.13676 -2.03873,-0.47311 -3.42454,-1.21605 -1.38579,-0.74663 -3.99307,-2.51712 -3.33569,-3.45965 0,0 2.02985,-1.29368 2.92263,-1.97008 0.89722,-0.68011 3.18024,-2.30275 4.56603,-2.09206 1.38582,0.19591 5.13459,1.5561 6.52038,1.96268 z m -12.49443,-9.96128 c 2.18531,0 3.96198,2.16599 3.96198,4.83834 0,0.4916 -0.0578,0.94623 -0.16878,1.38609 -0.53301,0.15154 -1.07489,0.39549 -1.59901,0.76511 -0.26651,0.18111 -0.50191,0.35114 -0.72844,0.52117 0.34646,-0.53966 0.48415,-1.30847 0.32869,-2.11793 -0.29316,-1.46001 -1.46131,-2.52452 -2.62059,-2.37298 -1.15484,0.16634 -1.85218,1.47849 -1.55902,2.94589 0.29758,1.46739 1.46129,2.5319 2.61613,2.37297 0.0667,-0.0111 0.12882,-0.0259 0.19544,-0.0443 -0.5641,0.45093 -1.08376,0.83904 -1.61233,1.16799 -1.599,-0.61726 -2.7716,-2.45427 -2.7716,-4.62764 0,-2.67237 1.77223,-4.83466 3.95753,-4.83466 z m -4.26845,67.97698 c -0.51524,1.92942 -3.2291,3.33028 -3.2291,3.33028 -2.46069,0.64314 -9.30088,-1.82593 -12.40117,-2.90892 -3.09586,-1.06821 -10.97983,-1.40086 -12.01475,-2.35449 -1.02602,-0.97579 0.51524,-3.1233 0.91055,-5.1599 0.38198,-2.0514 -0.77286,-3.33398 -0.39086,-4.73485 0.39086,-1.39346 5.42773,-1.39346 7.35986,-2.35817 1.94101,-0.97211 2.32744,-3.76644 3.87758,-4.51677 1.55015,-0.75773 4.38839,1.92943 5.5521,3.44117 1.15927,1.49697 5.55209,7.95054 7.35986,9.56209 1.8122,1.61155 3.49116,3.77013 2.97593,5.69956 z m 28.59108,-18.74717 c -0.46637,1.89615 -0.46637,8.74892 -0.46637,8.74892 0,0 -5.01021,5.77717 -12.77871,6.7234 -7.7596,0.94623 -11.64165,0.26613 -11.64165,0.26613 l -4.36172,-4.16563 c 0,0 3.389,-0.41028 2.9093,-3.23418 -0.48858,-2.8239 -10.34467,-6.72709 -12.12579,-10.22741 -1.77223,-3.49291 -0.31979,-9.41794 1.94545,-12.3786 2.26082,-2.95697 3.70881,-9.41054 5.97407,-11.56913 2.26526,-2.14379 4.03749,-6.7197 3.2291,-8.74153 0,0 4.85031,4.84573 8.23931,4.04365 3.39345,-0.80946 11.00204,-5.52214 12.12579,-4.70897 1.12818,0.80947 10.8288,18.56236 11.79265,24.21386 0.97274,5.64781 -0.64849,9.9502 -0.64849,9.9502 0,0 -3.71324,-0.80578 -4.19294,1.07929 z m 24.81122,12.67429 c -1.51017,1.15322 -9.91382,3.97712 -12.43226,6.18007 -2.5051,2.18446 -5.77862,3.96233 -7.78181,3.44486 -2.01653,-0.52855 -3.771,-2.8239 -2.89154,-6.17267 0.87501,-3.33767 1.63453,-6.99692 1.51017,-9.08898 -0.12436,-2.09205 -0.63516,-4.91964 0,-5.33732 0.62629,-0.40658 1.62565,-0.20329 1.62565,-0.20329 0,0 -0.49301,3.96603 2.38962,5.01945 2.88265,1.03494 7.03119,-0.41767 8.28818,-1.47109 1.26143,-1.03864 2.14089,-2.60582 2.14089,-2.60582 0,0 1.25255,0.52855 1.12818,2.19554 -0.12436,1.67069 0.87502,4.08062 2.76717,4.91225 1.87882,0.82427 4.76591,1.98117 3.25575,3.127 z"
   inkscape:label="#path3-0"
   style="display:none" />
   
</svg>