<?xml version="1.0" encoding="UTF-8" standalone="no"?>
<!-- Created with Inkscape (http://www.inkscape.org/) -->

<svg
   xmlns:dc="http://purl.org/dc/elements/1.1/"
   xmlns:cc="http://creativecommons.org/ns#"
   xmlns:rdf="http://www.w3.org/1999/02/22-rdf-syntax-ns#"
   xmlns:svg="http://www.w3.org/2000/svg"
   xmlns="http://www.w3.org/2000/svg"
   xmlns:sodipodi="http://sodipodi.sourceforge.net/DTD/sodipodi-0.dtd"
   xmlns:inkscape="http://www.inkscape.org/namespaces/inkscape"
   width="80%"
   height="180"
   id="svg_b"
   version="1.1"
   inkscape:version="0.48.3.1 r9886"
   sodipodi:docname="pl_a.svg"
	 viewBox="0 0 320.00001 249.99999"
	 overflow="visible"
	 enable-background="new 0 0 499.524 554.546"
	 xml:space="preserve"
	 inkscape:version="0.48.3.1 r9886"
	 style="overflow:visible">
  <defs
     id="defs4282">
    <inkscape:path-effect
       effect="spiro"
       id="path-effect4507"
       is_visible="true" />
    <inkscape:path-effect
       effect="spiro"
       id="path-effect4459"
       is_visible="true" />
    <linearGradient
       gradientTransform="matrix(2.5767066,0,0,-3.1091653,-856.41323,-1123.6128)"
       y2="-84.959"
       x2="357.5195"
       y1="-369.99951"
       x1="357.5195"
       gradientUnits="userSpaceOnUse"
       id="SVGID_1_">
      <stop
         id="stop4261"
         style="stop-color:#FF832A"
         offset="0" />
      <stop
         id="stop4263"
         style="stop-color:#D42300"
         offset="1" />
    </linearGradient>
    <inkscape:path-effect
       effect="spiro"
       id="path-effect4459-7"
       is_visible="true" />
    <inkscape:path-effect
       effect="spiro"
       id="path-effect4459-3"
       is_visible="true" />
  </defs>
  <sodipodi:namedview
     id="base"
     pagecolor="#000000"
     bordercolor="#666666"
     borderopacity="1.0"
     inkscape:pageopacity="0.19215686"
     inkscape:pageshadow="2"
     inkscape:zoom="1.5494506"
     inkscape:cx="63.588495"
     inkscape:cy="151.79067"
     inkscape:current-layer="layer1"
     inkscape:document-units="px"
     showgrid="true"
     objecttolerance="50"
     guidetolerance="50"
     inkscape:window-width="1360"
     inkscape:window-height="722"
     inkscape:window-x="0"
     inkscape:window-y="24"
     inkscape:window-maximized="1">
    <inkscape:grid
       type="xygrid"
       id="grid4461"
       empspacing="5"
       visible="true"
       enabled="true"
       snapvisiblegridlinesonly="true" />
  </sodipodi:namedview>
  <metadata
     id="metadata4285">
    <rdf:RDF>
      <cc:Work
         rdf:about="">
        <dc:format>image/svg+xml</dc:format>
        <dc:type
           rdf:resource="http://purl.org/dc/dcmitype/StillImage" />
        <dc:title />
      </cc:Work>
    </rdf:RDF>
  </metadata>
  <g
     id="layer1"
     inkscape:label="Layer 1"
     inkscape:groupmode="layer"
     transform="translate(0,-160)">
    <g
       id="php_logo"
       transform="matrix(0.48734211,0,0,0.46052632,63.408794,210.38158)"
       inkscape:label="php_logo"
       style="display:none">
      <g
         id="g3088">
        <g
           id="g3090">
          <path
             id="path3092"
             d="M 198,456 C 263.8,417.9 329.7,379.8 395.5,341.7"
             clip-rule="evenodd"
             inkscape:connector-curvature="0"
             style="fill:#778cc5;fill-rule:evenodd" />
          <path
             id="path3094"
             d="m 198.3,0 197,113.7 0.2,228.1 L 198,456 0.3,342.2 0,114.7 C 64.8,76.3 132.7,37.1 198.3,0 z"
             clip-rule="evenodd"
             inkscape:connector-curvature="0"
             style="fill:#778cc5;fill-rule:evenodd" />
        </g>
      </g>
      <g
         id="g3096">
        <g
           id="g3098">
          <path
             id="path3100"
             d="m 197.9,413.5 c 53.5,-31 107.1,-61.9 160.6,-92.9"
             clip-rule="evenodd"
             inkscape:connector-curvature="0"
             style="fill:#ffffff;fill-rule:evenodd" />
          <path
             id="path3102"
             d="m 198.2,42.6 160.3,92.5 0.1,185.5 L 198,413.5 37.2,320.9 36.9,135.9 c 52.7,-31.2 108,-63.2 161.3,-93.3 z"
             clip-rule="evenodd"
             inkscape:connector-curvature="0"
             style="fill:#ffffff;fill-rule:evenodd" />
        </g>
      </g>
      <g
         id="g3104">
        <g
           id="g3106">
          <path
             id="path3108"
             d="M 198,456 C 263.8,417.9 329.7,379.8 395.5,341.7"
             clip-rule="evenodd"
             inkscape:connector-curvature="0"
             style="fill:#778cc5;fill-rule:evenodd" />
          <path
             id="path3110"
             d="m 198.3,0 197,113.7 0.2,228.1 L 198,456 0.3,342.2 0,114.7 C 64.8,76.3 132.7,37.1 198.3,0 z"
             clip-rule="evenodd"
             inkscape:connector-curvature="0"
             style="fill:#333333;fill-rule:evenodd;stroke:#b3b3b3;stroke-width:0.57770169" />
        </g>
      </g>
      <g
         id="g3112">
        <g
           id="g3114">
          <path
             id="path3116"
             d="m 197.9,413.5 c 53.5,-31 107.1,-61.9 160.6,-92.9"
             clip-rule="evenodd"
             inkscape:connector-curvature="0"
             style="fill:#ffffff;fill-rule:evenodd" />
          <path
             id="path3118"
             d="m 198.2,42.6 160.3,92.5 0.1,185.5 L 198,413.5 37.2,320.9 36.9,135.9 c 52.7,-31.2 108,-63.2 161.3,-93.3 z"
             clip-rule="evenodd"
             inkscape:connector-curvature="0"
             style="fill:#ffffff;fill-rule:evenodd" />
        </g>
      </g>
      <path
         id="path3120"
         d="m 198,294.9 c 72.9,0 131.9,-29.9 131.9,-66.8 0,-36.9 -59,-66.8 -131.9,-66.8 -72.8,0 -131.9,29.9 -131.9,66.8 0,36.8 59.1,66.8 131.9,66.8 z"
         inkscape:connector-curvature="0"
         style="fill:#333333" />
      <path
         id="path3122"
         d="m 140.9,207.5 c 6,0 10,1.1 12,3.3 2,2.2 2.5,6 1.4,11.4 -1.1,5.6 -3.2,9.6 -6.3,12 -3.1,2.4 -7.8,3.6 -14.2,3.6 h -9.6 l 5.9,-30.3 h 10.8 z m -38.4,60.9 h 15.8 l 3.7,-19.2 h 13.5 c 6,0 10.9,-0.6 14.7,-1.9 3.8,-1.3 7.3,-3.4 10.5,-6.3 2.6,-2.4 4.8,-5.1 6.4,-8 1.6,-2.9 2.8,-6.2 3.5,-9.7 1.7,-8.6 0.4,-15.3 -3.8,-20 -4.2,-4.8 -10.8,-7.2 -20,-7.2 h -30.3 l -14,72.3 z"
         inkscape:connector-curvature="0"
         style="fill:#fdfdff" />
      <path
         id="path3124"
         d="m 182.2,176.9 h 15.6 l -3.8,19.2 h 14 c 8.8,0 14.8,1.5 18.1,4.6 3.3,3.1 4.3,8 3,14.9 l -6.5,33.7 h -15.9 l 6.2,-32 c 0.7,-3.6 0.5,-6.1 -0.8,-7.5 -1.2,-1.3 -3.8,-2 -7.8,-2 h -12.5 l -8,41.4 h -15.7 l 14.1,-72.3 z"
         inkscape:connector-curvature="0"
         style="fill:#fdfdff" />
      <path
         id="path3126"
         d="m 263.9,207.5 c 6,0 10,1.1 12,3.3 2,2.2 2.5,6 1.4,11.4 -1.1,5.6 -3.2,9.6 -6.3,12 -3.1,2.4 -7.9,3.6 -14.2,3.6 h -9.6 l 5.9,-30.3 h 10.8 z m -38.4,60.9 h 15.8 l 3.7,-19.2 h 13.5 c 6,0 10.9,-0.6 14.7,-1.9 3.9,-1.3 7.3,-3.4 10.5,-6.3 2.6,-2.4 4.8,-5.1 6.4,-8 1.6,-2.9 2.8,-6.2 3.5,-9.7 1.7,-8.6 0.4,-15.3 -3.8,-20 -4.2,-4.8 -10.8,-7.2 -19.9,-7.2 h -30.3 l -14.1,72.3 z"
         inkscape:connector-curvature="0"
         style="fill:#fdfdff" />
    </g>
    <path
       id="git_logo"
       style="fill:#333333;stroke:none;display:none"
       d="m 300,357.47269 -40.83513,39.42807 c -2.35061,2.27128 -6.16481,2.27128 -8.51858,0 l -8.47878,-8.18843 10.75581,-10.38598 c 2.50013,0.81505 5.3668,0.26801 7.35874,-1.65575 2.00393,-1.93575 2.56527,-4.72752 1.69969,-7.14997 l 10.3674,-10.00938 c 2.50878,0.83499 5.4013,0.29522 7.40524,-1.64239 2.79908,-2.70196 2.79908,-7.08207 0,-9.78628 -2.80112,-2.70431 -7.33645,-2.70431 -10.13879,0 -2.1052,2.03473 -2.62603,5.02189 -1.55852,7.52659 l -9.66954,9.33596 0,-24.56732 c 0.68185,-0.3263 1.32594,-0.7609 1.89452,-1.30833 2.79907,-2.70244 2.79907,-7.08206 0,-9.78865 -2.79909,-2.70155 -7.33769,-2.70155 -10.13472,0 -2.79907,2.70659 -2.79907,7.08621 0,9.78865 0.69183,0.66723 1.49299,1.17201 2.34777,1.5099 l 0,24.79455 c -0.85478,0.3379 -1.65401,0.83844 -2.34777,1.51029 -2.11997,2.04632 -2.63011,5.05118 -1.54266,7.56541 L 238.00076,384.69007 210,357.65538 c -2.35178,-2.27315 -2.35178,-5.95604 0,-8.22723 L 250.83714,310 c 2.35102,-2.27084 6.16398,-2.27084 8.51857,0 L 300,349.24546 c 2.35254,2.27156 2.35254,5.95633 0,8.22723"
       inkscape:connector-curvature="0"
       inkscape:label="git_logo" />
    <g
       id="sql_logo"
       transform="matrix(0.25649529,0,0,0.35703613,9.8106344,308.08721)"
       inkscape:label="sql_logo"
       style="display:none">
      <g
         id="g4196"
         class="s0"
         transform="translate(0.738281,121.593)"
         style="fill:#333333">
        <path
           id="path4198"
           d="m 0,62 c 0,0 13,0 13,0 0,0 0,-50 0,-50 0,0 20,44 20,44 2,5 5,7 12,7 6,0 9,-2 11,-7 0,0 20,-44 20,-44 0,0 0,50 0,50 0,0 13,0 13,0 0,0 0,-50 0,-50 C 89,7 87,4 83,3 73,0 67,3 64,9 64,9 44,53 44,53 44,53 25,9 25,9 22,3 16,0 6,3 2,4 0,7 0,12 0,12 0,62 0,62 z"
           inkscape:connector-curvature="0" />
      </g>
      <g
         id="g4200"
         class="s0"
         transform="translate(100.444,142.416)"
         style="fill:#333333;fill-rule:nonzero">
        <path
           id="path4202"
           d="m 0,0 c 0,0 13,0 13,0 0,0 0,28 0,28 0,2 0,5 7,5 4,0 28,0 28,0 0,0 0,-33 0,-33 0,0 13,0 13,0 0,0 0,45 0,46 0,11 -14,13 -20,13 0,0 -41,0 -41,0 0,0 0,-8 0,-8 0,0 41,0 41,0 8,-1 7,-5 7,-7 0,0 0,-3 0,-3 0,0 -27,0 -27,0 C 8,41 0,35 0,29 0,28 0,0 0,0 z"
           inkscape:connector-curvature="0" />
      </g>
      <g
         id="g4204"
         class="s1"
         transform="translate(171.496,124.557)"
         style="fill:#333333">
        <path
           id="path4206"
           d="m 0,59 c 0,0 37,0 37,0 4,0 8,-1 12,-2 5,-3 8,-6 8,-11 0,0 0,-9 0,-9 0,-4 -3,-7 -9,-10 -3,-1 -7,-1 -11,-1 0,0 -16,0 -16,0 -5,0 -7,-2 -8,-6 0,0 0,0 0,-1 0,0 0,-5 0,-5 0,-1 0,-1 0,-2 1,-2 2,-3 7,-3 0,0 0,0 1,0 0,0 37,0 37,0 0,0 0,-9 0,-9 C 58,0 21,0 21,0 16,0 14,0 11,1 3,3 0,7 0,14 c 0,0 0,7 0,7 0,6 7,11 18,12 1,0 2,0 3,0 0,0 14,0 14,0 0,0 1,0 1,0 4,1 6,1 7,3 1,1 1,1 1,2 0,0 0,8 0,8 0,1 -1,2 -2,3 -1,1 -3,1 -5,2 -1,0 -1,0 -2,0 0,0 -35,0 -35,0 0,0 0,8 0,8 z"
           inkscape:connector-curvature="0" />
      </g>
      <g
         id="g4208"
         class="s1"
         transform="translate(308.656,124.557)"
         style="fill:#333333">
        <path
           id="path4210"
           d="m 0,44 c 0,9 7,14 20,15 1,0 2,0 3,0 0,0 34,0 34,0 0,0 0,-8 0,-8 0,0 -34,0 -34,0 C 16,51 13,49 13,44 13,44 13,0 13,0 13,0 0,0 0,0 0,0 0,44 0,44 z"
           inkscape:connector-curvature="0" />
      </g>
      <g
         id="g4212"
         class="s1"
         transform="translate(236.74,124.666)"
         style="fill:#333333">
        <path
           id="path4214"
           d="M 0,45 C 0,45 0,14 0,14 0,6 5,2 16,0 c 1,0 3,0 4,0 0,0 24,0 24,0 1,0 2,0 4,0 10,2 16,6 16,14 0,0 0,31 0,31 0,6 -2,9 -8,12 0,0 13,11 13,11 0,0 -15,0 -15,0 0,0 -10,-9 -10,-9 0,0 -11,0 -11,0 0,0 -13,0 -13,0 -3,0 -5,0 -8,-1 C 4,56 0,52 0,45 z m 14,-1 c 0,0 0,1 0,1 1,4 4,6 9,6 0,0 12,0 12,0 0,0 -11,-10 -11,-10 0,0 15,0 15,0 0,0 9,9 9,9 2,-1 3,-3 4,-5 0,0 0,0 0,-1 0,0 0,-29 0,-29 0,0 0,-1 0,-1 -1,-4 -4,-5 -9,-5 0,0 -20,0 -20,0 -5,0 -9,2 -9,6 0,0 0,29 0,29 z"
           inkscape:connector-curvature="0" />
      </g>
      <g
         id="g4216"
         class="s0"
         transform="translate(241.59,-4.64258)"
         style="fill:#333333">
        <path
           id="path4218"
           d="m 135,115 c -8,0 -14,1 -19,3 -1,0 -4,0 -4,2 1,1 1,2 2,3 1,2 3,5 5,6 2,2 4,4 6,5 4,2 8,4 12,6 2,1 4,3 7,5 1,0 1,2 3,2 0,0 0,0 0,0 -1,-1 -1,-2 -2,-3 -1,-1 -2,-2 -3,-3 -3,-4 -6,-7 -10,-10 -3,-2 -10,-5 -11,-9 0,0 0,0 -1,0 3,0 5,-1 7,-2 4,-1 7,0 10,-1 2,-1 3,-1 5,-2 0,0 0,0 0,0 -2,-2 -3,-5 -5,-6 -5,-5 -11,-9 -16,-12 -3,-2 -7,-4 -11,-5 -1,-1 -3,-1 -3,-2 -2,-2 -3,-5 -4,-8 C 100,79 97,73 94,67 93,63 92,59 89,56 79,39 68,29 51,19 48,17 43,16 39,15 36,15 34,15 31,15 30,14 28,12 27,11 21,8 7,0 3,10 c -3,7 4,13 6,16 2,2 4,5 5,8 1,1 1,3 1,5 2,4 3,9 6,13 1,2 2,4 3,6 1,1 2,2 3,3 -2,2 -2,5 -3,8 -3,11 -2,25 3,33 2,2 6,8 11,6 4,-2 3,-8 4,-13 1,-1 0,-2 1,-2 0,0 0,0 0,0 1,2 3,5 4,8 3,5 8,10 13,13 2,2 4,5 7,6 0,0 0,0 0,0 0,0 0,0 0,0 -1,-1 -2,-2 -2,-2 -2,-2 -4,-4 -6,-6 -4,-6 -7,-12 -11,-18 -1,-3 -3,-6 -4,-10 0,-1 0,-3 -1,-3 -2,2 -4,4 -5,7 -2,4 -2,9 -3,14 0,1 0,0 0,1 -3,-1 -4,-4 -6,-7 C 26,89 26,78 28,70 29,68 32,61 31,59 30,57 28,56 27,55 26,53 25,50 24,48 21,43 20,37 18,31 16,29 14,26 13,24 11,21 9,19 7,16 7,15 6,13 7,12 c 0,-1 0,-1 1,-1 2,-1 5,0 7,1 3,1 6,2 9,4 2,1 3,3 5,4 1,0 1,0 2,0 3,1 7,0 10,1 5,2 9,4 14,7 13,8 23,19 30,33 2,3 2,5 3,7 2,5 5,10 7,14 2,5 4,10 7,14 1,2 7,3 10,4 2,1 5,2 7,3 3,2 6,4 10,6 1,2 6,4 6,6 z"
           inkscape:connector-curvature="0" />
      </g>
      <g
         id="g4220"
         style="fill:#00618a;fill-rule:evenodd"
         transform="translate(272.504,24.8027)">
        <path
           id="path4222"
           d="M 4,0 C 2,0 1,0 0,0 0,1 0,1 0,1 0,1 0,1 0,1 1,2 2,3 3,5 4,6 5,8 6,9 6,9 6,9 6,9 7,8 8,7 8,4 7,4 7,3 7,2 6,1 5,1 4,0 z"
           inkscape:connector-curvature="0" />
      </g>
    </g>
    <g
       id="ci_logo"
       transform="matrix(0.38809231,0,0,0.32162974,119.05849,379.61308)"
       style="display:none">
      <g
         id="g4256">
        <g
           id="g4258">
          <linearGradient
             gradientTransform="matrix(2.5355595,0,0,-2.9379439,-1280.1701,-1488.4674)"
             y2="-84.959"
             x2="357.5195"
             y1="-369.99951"
             x1="357.5195"
             gradientUnits="userSpaceOnUse"
             id="linearGradient4343">
            <stop
               id="stop4345"
               style="stop-color:#FF832A"
               offset="0" />
            <stop
               id="stop4347"
               style="stop-color:#D42300"
               offset="1" />
          </linearGradient>
          <path
             id="path4265"
             d="m 146.904,281.971 c 13.937,-8.942 24.648,-20.434 28.021,-37.203 4.393,-21.854 -3.646,-39.842 -18.203,-55.566 -9.481,-10.244 -21.127,-17.742 -32.604,-25.449 -8.146,-5.471 -16.565,-10.613 -23.291,-17.922 -5.793,-6.296 -10.22,-13.19 -8.758,-23.862 -7.191,7.602 -11.113,15.267 -12.207,24.343 -1.204,9.983 2.275,18.692 7.819,26.702 2.365,3.415 5.04,6.621 7.646,9.863 3.983,4.953 6.392,10.513 6.563,16.912 0.283,10.57 -6.511,18.485 -16.328,19.123 -9.978,0.647 -18.493,-7.062 -19.427,-17.442 -0.315,-3.505 0.744,-6.878 0.838,-11.308 -15.563,12.904 -25.754,28.02 -26.501,47.854 -0.773,20.564 10.45,35.013 26.449,46.484 -1.544,1.179 -2.683,0.115 -3.814,-0.266 C 16.26,268.473 -8.1,224.441 2.426,174.724 8.691,145.129 24.522,120.85 44.097,98.506 57.293,83.444 72.549,70.429 85.981,55.622 c 8.928,-9.843 16.257,-20.68 19.958,-33.625 2.476,-8.656 2.14,-15.362 -0.863,-21.384 1.388,-1.261 2.474,-0.334 3.413,0.59 16.381,16.103 26.528,34.985 25.221,58.608 -0.526,9.516 -4.045,18.504 -6.228,27.727 -1.783,7.535 -2.793,15.134 -0.389,22.692 2.25,7.074 5.994,13.163 13.537,15.567 11.357,3.62 25.456,-5.225 23.016,-19.703 12.397,6.655 22.982,14.993 32.033,25.22 36.547,41.296 31.453,98.315 -11.815,132.696 -10.498,8.343 -21.972,14.976 -34.791,19.125 -1.193,0.489 -2.275,0.769 -2.169,-1.164 z"
             inkscape:connector-curvature="0"
             style="fill:#333333" />
        </g>
      </g>
    </g>
  </g>
</svg>
